<svg width="24" height="24" viewBox="0 0 24 24" fill="none" xmlns="http://www.w3.org/2000/svg">
<path d="M2.37396 4.17919C1.87555 3.68078 1.87555 2.8727 2.37396 2.37429C2.87237 1.87589 3.68045 1.87589 4.17886 2.37429L12.0001 10.1955L19.8211 2.37449C20.3196 1.87608 21.1276 1.87608 21.626 2.37449C22.1244 2.8729 22.1244 3.68098 21.626 4.17938L13.805 12.0004L21.6262 19.8216C22.1246 20.32 22.1246 21.1281 21.6262 21.6265C21.1278 22.1249 20.3197 22.1249 19.8213 21.6265L12.0001 13.8053L4.1787 21.6267C3.68029 22.1251 2.87222 22.1251 2.37381 21.6267C1.8754 21.1283 1.8754 20.3202 2.37381 19.8218L10.1952 12.0004L2.37396 4.17919Z" fill="white"/>
</svg>
