<svg width="64" height="64" viewBox="0 0 64 64" fill="none" xmlns="http://www.w3.org/2000/svg">
<g clip-path="url(#clip0_10_1076)">
<path fill-rule="evenodd" clip-rule="evenodd" d="M31.9988 25.9988C28.6851 25.9988 25.9989 28.6851 25.9989 31.9988C25.9989 35.3125 28.6851 37.9988 31.9988 37.9988C35.3125 37.9988 37.9988 35.3125 37.9988 31.9988C37.9988 28.6851 35.3125 25.9988 31.9988 25.9988ZM21.9989 31.9988C21.9989 26.4759 26.476 21.9988 31.9988 21.9988C37.5217 21.9988 41.9988 26.4759 41.9988 31.9988C41.9988 37.5216 37.5217 41.9987 31.9988 41.9987C26.476 41.9987 21.9989 37.5216 21.9989 31.9988Z" fill="url(#paint0_linear_10_1076)"/>
<path fill-rule="evenodd" clip-rule="evenodd" d="M33.4141 1.25253L31.9998 2.66675L30.5856 1.25253C31.3667 0.471486 32.633 0.471486 33.4141 1.25253ZM32.8776 23.1057L32.8796 23.1016L32.8961 23.0678C32.9118 23.0355 32.9364 22.984 32.9687 22.9147C33.0334 22.776 33.1289 22.5662 33.2449 22.2956C33.4773 21.7533 33.7898 20.9724 34.1025 20.0343C34.7359 18.1341 35.3332 15.6976 35.3332 13.3334C35.3332 11.2679 34.2693 9.00987 33.0024 7.10948C32.66 6.59587 32.3167 6.12892 31.9998 5.72295C31.683 6.12892 31.3397 6.59587 30.9973 7.10948C29.7303 9.00987 28.6665 11.2679 28.6665 13.3334C28.6665 15.6976 29.2638 18.1341 29.8972 20.0343C30.2099 20.9724 30.5224 21.7533 30.7548 22.2956C30.8708 22.5662 30.9662 22.776 31.031 22.9147C31.0633 22.984 31.0879 23.0355 31.1035 23.0678L31.12 23.1016L31.122 23.1057C31.122 23.1057 31.122 23.1057 29.3332 24.0001L27.5443 24.8945C28.0383 25.8825 29.2396 26.2829 30.2276 25.7889C31.2153 25.2951 31.6155 24.0935 31.122 23.1057M29.3332 24.0001C27.5443 24.8945 27.5443 24.8945 27.5443 24.8945L27.5424 24.8907L27.5396 24.885L27.531 24.8676L27.5029 24.81C27.4795 24.7616 27.4468 24.6932 27.4062 24.6063C27.3251 24.4325 27.2122 24.1839 27.0782 23.8713C26.8106 23.2469 26.4564 22.3611 26.1025 21.2992C25.4025 19.1994 24.6665 16.3026 24.6665 13.3334C24.6665 10.0656 26.2693 6.99029 27.6691 4.89068C28.3906 3.80835 29.1093 2.91035 29.648 2.28183C29.9182 1.96653 30.1456 1.7163 30.3086 1.54169C30.3901 1.45432 30.4557 1.38569 30.5027 1.3371L30.5591 1.27936L30.5762 1.26202L30.5819 1.25629L30.5856 1.25253C30.5856 1.25253 30.5856 1.25253 31.9998 2.66675C33.414 1.25253 33.4141 1.25253 33.4141 1.25253L33.4178 1.25629L33.4235 1.26202L33.4406 1.27936L33.4969 1.3371C33.544 1.38569 33.6096 1.45432 33.6911 1.54169C33.8541 1.7163 34.0814 1.96653 34.3517 2.28183C34.8904 2.91035 35.609 3.80835 36.3306 4.89068C37.7303 6.99029 39.3332 10.0656 39.3332 13.3334C39.3332 16.3026 38.5971 19.1994 37.8972 21.2992C37.5432 22.3611 37.1891 23.2469 36.9215 23.8713C36.7874 24.1839 36.6746 24.4325 36.5935 24.6063C36.5529 24.6932 36.5202 24.7616 36.4968 24.81L36.4687 24.8676L36.4601 24.885L36.4572 24.8907L36.4557 24.8937C36.4557 24.8937 36.4554 24.8945 34.6665 24.0001L36.4557 24.8937C35.9618 25.8817 34.76 26.2829 33.7721 25.7889C32.7847 25.2953 32.3851 24.0933 32.8776 23.1057" fill="url(#paint1_linear_10_1076)"/>
<path fill-rule="evenodd" clip-rule="evenodd" d="M1.25229 30.5859L2.6665 32.0001L1.25229 33.4143C0.471242 32.6332 0.471242 31.3669 1.25229 30.5859ZM23.1054 31.1223L23.1014 31.1203L23.0675 31.1038C23.0352 31.0882 22.9838 31.0635 22.9145 31.0312C22.7758 30.9665 22.566 30.871 22.2953 30.755C21.7531 30.5226 20.9722 30.2101 20.034 29.8974C18.1339 29.2641 15.6973 28.6667 13.3332 28.6667C11.2677 28.6667 9.00962 29.7306 7.10924 30.9975C6.59562 31.3399 6.12868 31.6833 5.72271 32.0001C6.12868 32.3169 6.59562 32.6602 7.10924 33.0026C9.00962 34.2696 11.2677 35.3334 13.3332 35.3334C15.6973 35.3334 18.1339 34.7361 20.034 34.1027C20.9722 33.79 21.7531 33.4775 22.2953 33.2451C22.566 33.1291 22.7758 33.0337 22.9145 32.969C22.9838 32.9366 23.0352 32.912 23.0675 32.8964L23.1014 32.8799L23.1054 32.8779C23.1054 32.8779 23.1054 32.8779 23.9998 34.6667L24.8943 36.4556C25.8822 35.9616 26.2827 34.7603 25.7887 33.7723C25.2948 32.7846 24.0932 32.3844 23.1054 32.8779M23.9998 34.6667C24.8943 36.4556 24.8943 36.4556 24.8943 36.4556L24.8905 36.4575L24.8847 36.4603L24.8674 36.4689L24.8098 36.497C24.7613 36.5205 24.693 36.5531 24.606 36.5937C24.4322 36.6748 24.1837 36.7877 23.871 36.9217C23.2466 37.1893 22.3609 37.5435 21.299 37.8974C19.1991 38.5974 16.3023 39.3334 13.3332 39.3334C10.0653 39.3334 6.99005 37.7306 4.89044 36.3308C3.8081 35.6093 2.91011 34.8907 2.28159 34.3519C1.96628 34.0817 1.71606 33.8543 1.54145 33.6914C1.45408 33.6098 1.38545 33.5442 1.33686 33.4972L1.27911 33.4409L1.26178 33.4237L1.25605 33.418L1.25229 33.4143C1.25229 33.4143 1.25229 33.4143 2.6665 32.0001C1.25229 30.5859 1.25229 30.5859 1.25229 30.5859L1.25605 30.5821L1.26178 30.5764L1.27911 30.5593L1.33686 30.503C1.38545 30.456 1.45408 30.3903 1.54145 30.3088C1.71606 30.1458 1.96628 29.9185 2.28159 29.6482C2.91011 29.1095 3.8081 28.3909 4.89044 27.6693C6.99005 26.2696 10.0653 24.6667 13.3332 24.6667C16.3023 24.6667 19.1991 25.4028 21.299 26.1027C22.3609 26.4567 23.2466 26.8109 23.871 27.0785C24.1837 27.2125 24.4322 27.3254 24.606 27.4065C24.693 27.447 24.7613 27.4797 24.8098 27.5031L24.8674 27.5312L24.8847 27.5398L24.8905 27.5427L24.8935 27.5442C24.8935 27.5442 24.8943 27.5446 23.9998 29.3334L24.8935 27.5442C25.8815 28.0382 26.2827 29.2399 25.7887 30.2278C25.295 31.2152 24.093 31.6148 23.1054 31.1223" fill="url(#paint2_linear_10_1076)"/>
<path fill-rule="evenodd" clip-rule="evenodd" d="M33.4141 62.7476L31.9998 61.3334L30.5856 62.7476C31.3667 63.5287 32.633 63.5287 33.4141 62.7476ZM32.8776 40.8945L32.8796 40.8986L32.8961 40.9324C32.9118 40.9647 32.9364 41.0161 32.9687 41.0854C33.0334 41.2241 33.1289 41.4339 33.2449 41.7046C33.4773 42.2469 33.7898 43.0278 34.1025 43.9659C34.7359 45.866 35.3332 48.3026 35.3332 50.6667C35.3332 52.7323 34.2693 54.9903 33.0024 56.8907C32.66 57.4043 32.3167 57.8712 31.9998 58.2772C31.683 57.8712 31.3397 57.4043 30.9973 56.8907C29.7303 54.9903 28.6665 52.7323 28.6665 50.6667C28.6665 48.3026 29.2638 45.866 29.8972 43.9659C30.2099 43.0278 30.5224 42.2469 30.7548 41.7046C30.8708 41.4339 30.9662 41.2241 31.031 41.0854C31.0633 41.0161 31.0879 40.9647 31.1035 40.9324L31.12 40.8986L31.122 40.8945C31.122 40.8945 31.122 40.8945 29.3332 40.0001L27.5443 39.1057C28.0383 38.1177 29.2396 37.7172 30.2276 38.2112C31.2153 38.7051 31.6155 39.9067 31.122 40.8945M29.3332 40.0001C27.5443 39.1057 27.5443 39.1057 27.5443 39.1057L27.5424 39.1094L27.5396 39.1152L27.531 39.1325L27.5029 39.1902C27.4795 39.2386 27.4468 39.307 27.4062 39.3939C27.3251 39.5677 27.2122 39.8162 27.0782 40.1289C26.8106 40.7533 26.4564 41.6391 26.1025 42.701C25.4025 44.8008 24.6665 47.6976 24.6665 50.6667C24.6665 53.9346 26.2693 57.0099 27.6691 59.1095C28.3906 60.1918 29.1093 61.0898 29.648 61.7183C29.9182 62.0336 30.1456 62.2839 30.3086 62.4585C30.3901 62.5458 30.4557 62.6145 30.5027 62.6631L30.5591 62.7208L30.5762 62.7381L30.5819 62.7439L30.5856 62.7476C30.5856 62.7476 30.5856 62.7476 31.9998 61.3334C33.414 62.7476 33.4141 62.7476 33.4141 62.7476L33.4178 62.7439L33.4235 62.7381L33.4406 62.7208L33.4969 62.6631C33.544 62.6145 33.6096 62.5458 33.6911 62.4585C33.8541 62.2839 34.0814 62.0336 34.3517 61.7183C34.8904 61.0898 35.609 60.1918 36.3306 59.1095C37.7303 57.0099 39.3332 53.9346 39.3332 50.6667C39.3332 47.6976 38.5971 44.8008 37.8972 42.701C37.5432 41.6391 37.1891 40.7533 36.9215 40.1289C36.7874 39.8162 36.6746 39.5677 36.5935 39.3939C36.5529 39.307 36.5202 39.2386 36.4968 39.1902L36.4687 39.1325L36.4601 39.1152L36.4572 39.1094L36.4557 39.1064C36.4557 39.1064 36.4554 39.1057 34.6665 40.0001L36.4557 39.1064C35.9618 38.1185 34.76 37.7172 33.7721 38.2112C32.7847 38.7049 32.3851 39.9069 32.8776 40.8945" fill="url(#paint3_linear_10_1076)"/>
<path fill-rule="evenodd" clip-rule="evenodd" d="M62.7474 30.5859L61.3332 32.0001L62.7474 33.4143C63.5284 32.6332 63.5284 31.3669 62.7474 30.5859ZM40.8943 31.1223L40.8983 31.1203L40.9322 31.1038C40.9644 31.0882 41.0159 31.0635 41.0852 31.0312C41.2239 30.9665 41.4337 30.871 41.7043 30.755C42.2466 30.5226 43.0275 30.2101 43.9656 29.8974C45.8658 29.2641 48.3023 28.6667 50.6665 28.6667C52.732 28.6667 54.99 29.7306 56.8904 30.9975C57.404 31.3399 57.871 31.6833 58.277 32.0001C57.871 32.3169 57.404 32.6602 56.8904 33.0026C54.99 34.2696 52.732 35.3334 50.6665 35.3334C48.3023 35.3334 45.8658 34.7361 43.9656 34.1027C43.0275 33.79 42.2466 33.4775 41.7043 33.2451C41.4337 33.1291 41.2239 33.0337 41.0852 32.969C41.0159 32.9366 40.9644 32.912 40.9322 32.8964L40.8983 32.8799L40.8943 32.8779C40.8943 32.8779 40.8943 32.8779 39.9998 34.6667L39.1054 36.4556C38.1175 35.9616 37.717 34.7603 38.211 33.7723C38.7049 32.7846 39.9064 32.3844 40.8943 32.8779M39.9998 34.6667C39.1054 36.4556 39.1054 36.4556 39.1054 36.4556L39.1092 36.4575L39.1149 36.4603L39.1323 36.4689L39.1899 36.497C39.2384 36.5205 39.3067 36.5531 39.3936 36.5937C39.5674 36.6748 39.816 36.7877 40.1287 36.9217C40.7531 37.1893 41.6388 37.5435 42.7007 37.8974C44.8005 38.5974 47.6973 39.3334 50.6665 39.3334C53.9343 39.3334 57.0096 37.7306 59.1092 36.3308C60.1916 35.6093 61.0896 34.8907 61.7181 34.3519C62.0334 34.0817 62.2836 33.8543 62.4582 33.6914C62.5456 33.6098 62.6142 33.5442 62.6628 33.4972L62.7206 33.4409L62.7379 33.4237L62.7436 33.418L62.7474 33.4143C62.7474 33.4143 62.7474 33.4143 61.3332 32.0001C62.7474 30.5859 62.7474 30.5859 62.7474 30.5859L62.7436 30.5821L62.7379 30.5764L62.7206 30.5593L62.6628 30.503C62.6142 30.456 62.5456 30.3903 62.4582 30.3088C62.2836 30.1458 62.0334 29.9185 61.7181 29.6482C61.0896 29.1095 60.1916 28.3909 59.1092 27.6693C57.0096 26.2696 53.9343 24.6667 50.6665 24.6667C47.6973 24.6667 44.8005 25.4028 42.7007 26.1027C41.6388 26.4567 40.7531 26.8109 40.1287 27.0785C39.816 27.2125 39.5674 27.3254 39.3936 27.4065C39.3067 27.447 39.2384 27.4797 39.1899 27.5031L39.1323 27.5312L39.1149 27.5398L39.1092 27.5427L39.1062 27.5442C39.1062 27.5442 39.1054 27.5446 39.9998 29.3334L39.1062 27.5442C38.1182 28.0382 37.717 29.2399 38.211 30.2278C38.7047 31.2152 39.9067 31.6148 40.8943 31.1223" fill="url(#paint4_linear_10_1076)"/>
<path fill-rule="evenodd" clip-rule="evenodd" d="M11.2581 9.25879V11.2588L9.25805 11.2588C9.25805 10.1542 10.1535 9.25879 11.2581 9.25879ZM26.3312 25.0906L26.3298 25.0863L26.3175 25.0507C26.3057 25.0168 26.2868 24.9631 26.2606 24.8912C26.2083 24.7473 26.1275 24.5315 26.0181 24.2581C25.799 23.7103 25.4678 22.9372 25.0255 22.0527C24.1298 20.2612 22.8293 18.116 21.1575 16.4442C19.697 14.9837 17.3481 14.1393 15.1085 13.6914C14.5032 13.5703 13.9302 13.4829 13.4191 13.4199C13.4821 13.931 13.5696 14.5039 13.6906 15.1092C14.1385 17.3488 14.983 19.6978 16.4435 21.1583C18.1152 22.83 20.2605 24.1305 22.052 25.0263C22.9364 25.4685 23.7096 25.7997 24.2573 26.0188C24.5307 26.1282 24.7466 26.2091 24.8904 26.2614C24.9623 26.2875 25.0161 26.3065 25.05 26.3183L25.0856 26.3305L25.0898 26.332C25.0898 26.332 25.0898 26.332 24.4574 28.2294L23.8249 30.1267C24.8728 30.476 26.0054 29.9097 26.3547 28.8618C26.704 27.8141 26.1373 26.6815 25.0898 26.332M24.4574 28.2294C23.8249 30.1267 23.8249 30.1267 23.8249 30.1267L23.8209 30.1254L23.8148 30.1233L23.7965 30.1171L23.7359 30.0963C23.685 30.0786 23.6136 30.0533 23.5235 30.0206C23.3432 29.955 23.0877 29.8591 22.7718 29.7328C22.141 29.4805 21.2643 29.1046 20.2631 28.604C18.2834 27.6141 15.7146 26.0862 13.6151 23.9867C11.3044 21.676 10.2632 18.3681 9.7683 15.8937C9.51319 14.6181 9.38636 13.475 9.32287 12.6496C9.29102 12.2356 9.27484 11.8979 9.26661 11.6592C9.26249 11.5397 9.26035 11.4448 9.25924 11.3772L9.25823 11.2965L9.25808 11.2722L9.25806 11.2641L9.25805 11.2588C9.25805 11.2588 9.25805 11.2588 11.2581 11.2588C11.2581 9.25879 11.2581 9.25879 11.2581 9.25879L11.2634 9.2588L11.2714 9.25882L11.2958 9.25897L11.3765 9.25998C11.4441 9.26109 11.539 9.26323 11.6584 9.26735C11.8971 9.27558 12.2348 9.29176 12.6489 9.32361C13.4743 9.3871 14.6174 9.51393 15.8929 9.76904C18.3673 10.2639 21.6753 11.3051 23.986 13.6158C26.0855 15.7153 27.6134 18.2841 28.6033 20.2639C29.1038 21.265 29.4797 22.1418 29.732 22.7725C29.8584 23.0884 29.9543 23.344 30.0198 23.5242C30.0526 23.6144 30.0778 23.6858 30.0955 23.7366L30.1164 23.7972L30.1226 23.8156L30.1246 23.8217L30.1257 23.8249C30.1257 23.8249 30.126 23.8257 28.2286 24.4581L30.1257 23.8249C30.475 24.8727 29.909 26.0062 28.8611 26.3555C27.8138 26.7046 26.6813 26.1372 26.3312 25.0906" fill="url(#paint5_linear_10_1076)"/>
<path fill-rule="evenodd" clip-rule="evenodd" d="M9.2579 52.7419H11.2579V54.7419C10.1533 54.7419 9.2579 53.8464 9.2579 52.7419ZM25.0897 37.6687L25.0854 37.6701L25.0498 37.6824C25.0159 37.6942 24.9622 37.7131 24.8903 37.7393C24.7464 37.7916 24.5306 37.8725 24.2572 37.9818C23.7094 38.2009 22.9363 38.5321 22.0518 38.9744C20.2603 39.8701 18.1151 41.1707 16.4433 42.8424C14.9828 44.3029 14.1384 46.6518 13.6905 48.8915C13.5694 49.4968 13.482 50.0697 13.419 50.5808C13.9301 50.5178 14.503 50.4304 15.1083 50.3093C17.3479 49.8614 19.6969 49.0169 21.1574 47.5564C22.8291 45.8847 24.1296 43.7394 25.0254 41.9479C25.4676 41.0635 25.7988 40.2903 26.018 39.7426C26.1273 39.4692 26.2082 39.2533 26.2605 39.1095C26.2866 39.0376 26.3056 38.9838 26.3174 38.9499L26.3296 38.9143L26.3311 38.9101C26.3311 38.9101 26.3311 38.9101 28.2285 39.5425L30.1258 40.175C30.4751 39.1271 29.9088 37.9945 28.8609 37.6452C27.8133 37.2959 26.6806 37.8626 26.3311 38.9101M28.2285 39.5425C30.1258 40.175 30.1258 40.175 30.1258 40.175L30.1245 40.179L30.1224 40.1851L30.1162 40.2034L30.0954 40.264C30.0777 40.3149 30.0524 40.3863 30.0197 40.4765C29.9541 40.6567 29.8582 40.9123 29.7319 41.2281C29.4796 41.8589 29.1037 42.7356 28.6031 43.7368C27.6132 45.7165 26.0853 48.2853 23.9858 50.3848C21.6751 52.6955 18.3672 53.7367 15.8928 54.2316C14.6172 54.4867 13.4741 54.6136 12.6487 54.677C12.2347 54.7089 11.897 54.7251 11.6583 54.7333C11.5388 54.7374 11.4439 54.7396 11.3763 54.7407L11.2956 54.7417L11.2713 54.7418L11.2632 54.7419L11.2579 54.7419C11.2579 54.7419 11.2579 54.7419 11.2579 52.7419C9.2579 52.7419 9.2579 52.7419 9.2579 52.7419L9.2579 52.7366L9.25793 52.7285L9.25808 52.7041L9.25909 52.6235C9.26019 52.5558 9.26233 52.4609 9.26645 52.3415C9.27468 52.1028 9.29086 51.7651 9.32271 51.351C9.3862 50.5257 9.51303 49.3825 9.76814 48.107C10.263 45.6326 11.3042 42.3246 13.6149 40.0139C15.7144 37.9144 18.2832 36.3865 20.263 35.3967C21.2641 34.8961 22.1409 34.5202 22.7716 34.2679C23.0875 34.1416 23.3431 34.0456 23.5233 33.9801C23.6135 33.9473 23.6849 33.9221 23.7357 33.9044L23.7964 33.8835L23.8147 33.8773L23.8208 33.8753L23.824 33.8742C23.824 33.8742 23.8248 33.8739 24.4572 35.7713L23.824 33.8742C24.8718 33.5249 26.0053 34.091 26.3546 35.1388C26.7037 36.1861 26.1363 37.3186 25.0897 37.6687" fill="url(#paint6_linear_10_1076)"/>
<path fill-rule="evenodd" clip-rule="evenodd" d="M54.7418 52.7419H52.7418V54.7419C53.8463 54.7419 54.7418 53.8464 54.7418 52.7419ZM38.91 37.6687L38.9143 37.6701L38.9499 37.6824C38.9837 37.6942 39.0375 37.7131 39.1094 37.7393C39.2532 37.7916 39.4691 37.8725 39.7425 37.9818C40.2902 38.2009 41.0634 38.5321 41.9478 38.9744C43.7394 39.8701 45.8846 41.1707 47.5563 42.8424C49.0169 44.3029 49.8613 46.6518 50.3092 48.8915C50.4303 49.4968 50.5177 50.0697 50.5807 50.5808C50.0696 50.5178 49.4967 50.4304 48.8914 50.3093C46.6517 49.8614 44.3028 49.0169 42.8423 47.5564C41.1706 45.8847 39.87 43.7394 38.9743 41.9479C38.5321 41.0635 38.2008 40.2903 37.9817 39.7426C37.8724 39.4692 37.7915 39.2533 37.7392 39.1095C37.713 39.0376 37.6941 38.9838 37.6823 38.9499L37.67 38.9143L37.6686 38.9101C37.6686 38.9101 37.6686 38.9101 35.7712 39.5425L33.8738 40.175C33.5246 39.1271 34.0909 37.9945 35.1388 37.6452C36.1864 37.2959 37.319 37.8626 37.6686 38.9101M35.7712 39.5425C33.8738 40.175 33.8738 40.175 33.8738 40.175L33.8752 40.179L33.8772 40.1851L33.8834 40.2034L33.9043 40.264C33.922 40.3149 33.9472 40.3863 33.98 40.4765C34.0456 40.6567 34.1415 40.9123 34.2678 41.2281C34.5201 41.8589 34.896 42.7356 35.3966 43.7368C36.3864 45.7165 37.9143 48.2853 40.0139 50.3848C42.3246 52.6955 45.6325 53.7367 48.1069 54.2316C49.3824 54.4867 50.5256 54.6136 51.3509 54.677C51.765 54.7089 52.1027 54.7251 52.3414 54.7333C52.4608 54.7374 52.5558 54.7396 52.6234 54.7407L52.704 54.7417L52.7284 54.7418L52.7365 54.7419L52.7418 54.7419C52.7418 54.7419 52.7418 54.7419 52.7418 52.7419C54.7418 52.7419 54.7418 52.7419 54.7418 52.7419L54.7418 52.7366L54.7417 52.7285L54.7416 52.7041L54.7406 52.6235C54.7395 52.5558 54.7373 52.4609 54.7332 52.3415C54.725 52.1028 54.7088 51.7651 54.677 51.351C54.6135 50.5257 54.4866 49.3825 54.2315 48.107C53.7366 45.6326 52.6955 42.3246 50.3848 40.0139C48.2852 37.9144 45.7164 36.3865 43.7367 35.3967C42.7355 34.8961 41.8588 34.5202 41.228 34.2679C40.9122 34.1416 40.6566 34.0456 40.4764 33.9801C40.3862 33.9473 40.3148 33.9221 40.2639 33.9044L40.2033 33.8835L40.185 33.8773L40.1789 33.8753L40.1757 33.8742C40.1757 33.8742 40.1749 33.8739 39.5424 35.7713L40.1757 33.8742C39.1278 33.5249 37.9944 34.091 37.6451 35.1388C37.296 36.1861 37.8633 37.3186 38.91 37.6687" fill="url(#paint7_linear_10_1076)"/>
<path fill-rule="evenodd" clip-rule="evenodd" d="M52.7416 9.25879V11.2588L54.7416 11.2588C54.7416 10.1542 53.8462 9.25879 52.7416 9.25879ZM37.6684 25.0906L37.6699 25.0863L37.6821 25.0507C37.6939 25.0168 37.7129 24.9631 37.739 24.8912C37.7913 24.7473 37.8722 24.5315 37.9816 24.2581C38.2007 23.7103 38.5319 22.9372 38.9741 22.0527C39.8699 20.2612 41.1704 18.116 42.8421 16.4442C44.3027 14.9837 46.6516 14.1393 48.8912 13.6914C49.4965 13.5703 50.0695 13.4829 50.5806 13.4199C50.5175 13.931 50.4301 14.5039 50.3091 15.1092C49.8611 17.3488 49.0167 19.6978 47.5562 21.1583C45.8845 22.83 43.7392 24.1305 41.9477 25.0263C41.0632 25.4685 40.2901 25.7997 39.7423 26.0188C39.4689 26.1282 39.2531 26.2091 39.1092 26.2614C39.0374 26.2875 38.9836 26.3065 38.9497 26.3183L38.9141 26.3305L38.9098 26.332C38.9098 26.332 38.9098 26.332 39.5423 28.2294L40.1747 30.1267C39.1269 30.476 37.9942 29.9097 37.6449 28.8618C37.2957 27.8141 37.8624 26.6815 38.9098 26.332M39.5423 28.2294C40.1747 30.1267 40.1747 30.1267 40.1747 30.1267L40.1788 30.1254L40.1848 30.1233L40.2032 30.1171L40.2638 30.0963C40.3146 30.0786 40.3861 30.0533 40.4762 30.0206C40.6564 29.955 40.912 29.8591 41.2279 29.7328C41.8586 29.4805 42.7354 29.1046 43.7365 28.604C45.7163 27.6141 48.2851 26.0862 50.3846 23.9867C52.6953 21.676 53.7365 18.3681 54.2314 15.8937C54.4865 14.6181 54.6133 13.475 54.6768 12.6496C54.7087 12.2356 54.7248 11.8979 54.7331 11.6592C54.7372 11.5397 54.7393 11.4448 54.7404 11.3772L54.7414 11.2965L54.7416 11.2722L54.7416 11.2641L54.7416 11.2588C54.7416 11.2588 54.7416 11.2588 52.7416 11.2588C52.7416 9.25879 52.7416 9.25879 52.7416 9.25879L52.7363 9.2588L52.7282 9.25882L52.7039 9.25897L52.6232 9.25998C52.5556 9.26109 52.4607 9.26323 52.3412 9.26735C52.1025 9.27558 51.7648 9.29176 51.3508 9.32361C50.5254 9.3871 49.3823 9.51393 48.1067 9.76904C45.6323 10.2639 42.3244 11.3051 40.0137 13.6158C37.9142 15.7153 36.3863 18.2841 35.3964 20.2639C34.8958 21.265 34.52 22.1418 34.2677 22.7725C34.1413 23.0884 34.0454 23.344 33.9799 23.5242C33.9471 23.6144 33.9218 23.6858 33.9042 23.7366L33.8833 23.7972L33.8771 23.8156L33.875 23.8217L33.874 23.8249C33.874 23.8249 33.8737 23.8257 35.7711 24.4581L33.874 23.8249C33.5247 24.8727 34.0907 26.0062 35.1386 26.3555C36.1858 26.7046 37.3184 26.1372 37.6684 25.0906" fill="url(#paint8_linear_10_1076)"/>
</g>
<defs>
<linearGradient id="paint0_linear_10_1076" x1="31.9998" y1="0.666748" x2="31.9998" y2="63.3334" gradientUnits="userSpaceOnUse">
<stop stop-color="#02CCFF"/>
<stop offset="1" stop-color="#025FFF"/>
</linearGradient>
<linearGradient id="paint1_linear_10_1076" x1="31.9998" y1="0.666748" x2="31.9998" y2="63.3334" gradientUnits="userSpaceOnUse">
<stop stop-color="#02CCFF"/>
<stop offset="1" stop-color="#025FFF"/>
</linearGradient>
<linearGradient id="paint2_linear_10_1076" x1="31.9998" y1="0.666748" x2="31.9998" y2="63.3334" gradientUnits="userSpaceOnUse">
<stop stop-color="#02CCFF"/>
<stop offset="1" stop-color="#025FFF"/>
</linearGradient>
<linearGradient id="paint3_linear_10_1076" x1="31.9998" y1="0.666748" x2="31.9998" y2="63.3334" gradientUnits="userSpaceOnUse">
<stop stop-color="#02CCFF"/>
<stop offset="1" stop-color="#025FFF"/>
</linearGradient>
<linearGradient id="paint4_linear_10_1076" x1="31.9998" y1="0.666748" x2="31.9998" y2="63.3334" gradientUnits="userSpaceOnUse">
<stop stop-color="#02CCFF"/>
<stop offset="1" stop-color="#025FFF"/>
</linearGradient>
<linearGradient id="paint5_linear_10_1076" x1="31.9998" y1="0.666748" x2="31.9998" y2="63.3334" gradientUnits="userSpaceOnUse">
<stop stop-color="#02CCFF"/>
<stop offset="1" stop-color="#025FFF"/>
</linearGradient>
<linearGradient id="paint6_linear_10_1076" x1="31.9998" y1="0.666748" x2="31.9998" y2="63.3334" gradientUnits="userSpaceOnUse">
<stop stop-color="#02CCFF"/>
<stop offset="1" stop-color="#025FFF"/>
</linearGradient>
<linearGradient id="paint7_linear_10_1076" x1="31.9998" y1="0.666748" x2="31.9998" y2="63.3334" gradientUnits="userSpaceOnUse">
<stop stop-color="#02CCFF"/>
<stop offset="1" stop-color="#025FFF"/>
</linearGradient>
<linearGradient id="paint8_linear_10_1076" x1="31.9998" y1="0.666748" x2="31.9998" y2="63.3334" gradientUnits="userSpaceOnUse">
<stop stop-color="#02CCFF"/>
<stop offset="1" stop-color="#025FFF"/>
</linearGradient>
<clipPath id="clip0_10_1076">
<rect width="64" height="64" fill="white"/>
</clipPath>
</defs>
</svg>
